<?xml version="1.0" encoding="utf-8"?>
<!-- Generator: Adobe Illustrator 19.2.0, SVG Export Plug-In . SVG Version: 6.00 Build 0)  -->
<svg version="1.1" id="Layer_1" xmlns="http://www.w3.org/2000/svg" xmlns:xlink="http://www.w3.org/1999/xlink" x="0px" y="0px"
	 viewBox="0 0 34 34" enable-background="new 0 0 34 34" xml:space="preserve">
<g>
	<path d="M12,17.6H8.6v3.9h3.3c1.3,0,2.3-0.4,2.3-1.9C14.2,18.2,13.4,17.6,12,17.6z"/>
	<path d="M23.4,15.5c-1.3,0-2.2,0.8-2.3,2.2h4.6C25.5,16.4,24.8,15.5,23.4,15.5z"/>
	<path d="M13.7,13.8c0-1.3-1-1.6-2.1-1.6H8.6v3.3h3.2C12.9,15.5,13.7,15,13.7,13.8z"/>
	<path d="M17,0C7.6,0,0,7.6,0,17c0,9.4,7.6,17,17,17s17-7.6,17-17C34,7.6,26.4,0,17,0z M20.5,10.7h5.7v1.4h-5.7V10.7z M12.4,23.9
		H5.5V9.8h6.7c2.4,0,4.5,0.7,4.5,3.5c0,1.4-0.7,2.3-1.9,3c1.7,0.5,2.6,1.8,2.6,3.6C17.3,22.7,14.9,23.9,12.4,23.9z M23.6,22.1
		c0.9,0,2-0.5,2.2-1.3h2.5c-0.8,2.3-2.3,3.4-4.8,3.4c-3.2,0-5.2-2.2-5.2-5.4c0-3.1,2.1-5.4,5.2-5.4c3.2,0,5,2.5,5,5.6
		c0,0.2,0,0.4,0,0.5h-7.4C21.1,21.1,22,22.1,23.6,22.1z"/>
</g>
<g>
</g>
<g>
</g>
<g>
</g>
<g>
</g>
<g>
</g>
<g>
</g>
</svg>
