<?xml version="1.0" encoding="utf-8"?>
<!-- Generator: Adobe Illustrator 19.2.0, SVG Export Plug-In . SVG Version: 6.00 Build 0)  -->
<svg version="1.1" id="Layer_1" xmlns="http://www.w3.org/2000/svg" xmlns:xlink="http://www.w3.org/1999/xlink" x="0px" y="0px"
	 viewBox="0 0 34 34" enable-background="new 0 0 34 34" xml:space="preserve">
<path d="M17,0C7.6,0,0,7.6,0,17s7.6,17,17,17s17-7.6,17-17S26.4,0,17,0z M25.1,23.1c-1.3,1.8-2.9,3-4.9,3.7H20
	c-0.4,0-0.5-0.2-0.5-0.5c0,0,0-0.4,0-1c0-0.6,0-1.2,0-1.8c0-0.9-0.2-1.5-0.7-1.9c1.4-0.2,2.5-0.6,3.3-1.3c0.8-0.7,1.3-1.9,1.3-3.7
	c0-1.1-0.3-2-1-2.8c0.3-0.9,0.3-1.8-0.1-2.7H22c-0.7,0-1.5,0.4-2.5,1.1c-0.9-0.2-1.7-0.4-2.5-0.4s-1.6,0.1-2.5,0.4
	c-1-0.7-1.9-1.1-2.5-1.1h-0.2c-0.4,1-0.4,1.9-0.1,2.7c-0.7,0.8-1,1.7-1,2.8c0,1.8,0.4,3,1.2,3.7c0.8,0.7,1.9,1.1,3.3,1.3
	c-0.3,0.3-0.5,0.8-0.6,1.4c-0.4,0.2-0.7,0.3-1.2,0.3c-0.7,0-1.3-0.4-1.7-1.1c-0.4-0.7-0.9-1-1.6-1.1c-0.6,0-0.6,0.2,0,0.6
	c0.4,0.2,0.8,0.7,1.1,1.5c0,0.1,0.1,0.3,0.2,0.4c0.1,0.2,0.3,0.4,0.7,0.6c0.4,0.3,0.9,0.4,1.5,0.4c0.4,0,0.7,0,1-0.1v1.7
	c0,0.3-0.2,0.5-0.5,0.5h-0.2c-2-0.7-3.7-1.9-4.9-3.7S7,19.3,7,17.1c0-2.8,1-5.2,2.9-7.3s4.3-3,7.1-3s5.1,1,7.1,3s2.9,4.4,2.9,7.3
	C27,19.3,26.4,21.3,25.1,23.1z"/>
<g>
</g>
<g>
</g>
<g>
</g>
<g>
</g>
<g>
</g>
<g>
</g>
</svg>
