<?xml version="1.0" encoding="utf-8"?>
<!-- Generator: Adobe Illustrator 19.2.0, SVG Export Plug-In . SVG Version: 6.00 Build 0)  -->
<svg version="1.1" id="Layer_1" xmlns="http://www.w3.org/2000/svg" xmlns:xlink="http://www.w3.org/1999/xlink" x="0px" y="0px"
	 viewBox="0 0 34 34" enable-background="new 0 0 34 34" xml:space="preserve">
<g>
	<path d="M8.8,8.7c-0.1,0-0.1,0-0.1,0.1v16.4c0,0.1,0.1,0.2,0.2,0.2h16.4c0.1,0,0.1,0,0.1-0.1V8.8c0-0.1,0-0.1-0.1-0.1H8.8z
		 M13.2,23.7h-2.9v-8.9h2.9V23.7z M13,13c-0.3,0.3-0.7,0.4-1.1,0.4S11,13.3,10.8,13c-0.3-0.3-0.4-0.7-0.4-1.1c0-0.5,0.1-0.8,0.4-1.1
		c0.3-0.3,0.7-0.4,1.1-0.4c0.5,0,0.8,0.1,1.1,0.4c0.3,0.3,0.4,0.7,0.4,1.1C13.4,12.3,13.3,12.7,13,13z M23.7,23.7h-2.9v-4.9
		c0-1.3-0.5-1.9-1.5-1.9c-0.7,0-1.2,0.3-1.5,1c-0.1,0.1-0.1,0.4-0.1,0.7v5.1h-2.9v-8.9h2.9V16c0.7-1,1.6-1.5,2.6-1.5
		c1,0,1.8,0.3,2.4,1c0.6,0.7,0.9,1.6,0.9,2.9V23.7z"/>
	<path d="M17,0C7.6,0,0,7.6,0,17s7.6,17,17,17s17-7.6,17-17S26.4,0,17,0z M27,25.3c0,0.5-0.2,0.9-0.5,1.2c-0.3,0.3-0.7,0.5-1.1,0.5
		H8.7c-0.5,0-0.9-0.2-1.2-0.5C7.2,26.1,7,25.7,7,25.3V8.6c0-0.5,0.2-0.8,0.5-1.1C7.8,7.1,8.2,7,8.7,7h16.7c0.5,0,0.8,0.1,1.1,0.4
		C26.8,7.7,27,8.1,27,8.6V25.3z"/>
</g>
<g>
</g>
<g>
</g>
<g>
</g>
<g>
</g>
<g>
</g>
<g>
</g>
</svg>
