<?xml version="1.0" encoding="utf-8"?>
<!-- Generator: Adobe Illustrator 19.2.0, SVG Export Plug-In . SVG Version: 6.00 Build 0)  -->
<svg version="1.1" id="Layer_1" xmlns="http://www.w3.org/2000/svg" xmlns:xlink="http://www.w3.org/1999/xlink" x="0px" y="0px"
	 viewBox="0 0 34 34" enable-background="new 0 0 34 34" xml:space="preserve">
<path d="M17,0C7.6,0,0,7.6,0,17s7.6,17,17,17s17-7.6,17-17S26.4,0,17,0z M13.5,24.2C13,24.7,12.3,25,11.6,25c-0.7,0-1.3-0.3-1.9-0.8
	C9.3,23.7,9,23.1,9,22.4c0-0.7,0.3-1.3,0.8-1.9c0.5-0.5,1.1-0.8,1.9-0.8c0.7,0,1.3,0.3,1.9,0.8c0.5,0.5,0.8,1.1,0.8,1.9
	C14.2,23.1,14,23.7,13.5,24.2z M17.3,25c0-2.5-0.8-4.5-2.3-6c-1.5-1.5-3.5-2.2-6-2.2V13c3.3,0,6.1,1.2,8.5,3.5S21,21.7,21,25H17.3z
	 M23.2,25c0-4-1.4-7.4-4.1-10.1S13,10.7,9,10.7V7c5,0,9.2,1.8,12.7,5.3S27,20,27,25H23.2z"/>
<g>
</g>
<g>
</g>
<g>
</g>
<g>
</g>
<g>
</g>
<g>
</g>
</svg>
