<?xml version="1.0" encoding="utf-8"?>
<!-- Generator: Adobe Illustrator 19.2.0, SVG Export Plug-In . SVG Version: 6.00 Build 0)  -->
<svg version="1.1" id="Layer_1" xmlns="http://www.w3.org/2000/svg" xmlns:xlink="http://www.w3.org/1999/xlink" x="0px" y="0px"
	 viewBox="0 0 34 34" enable-background="new 0 0 34 34" xml:space="preserve">
<g>
	<polygon points="11.1,19.8 20.7,12.7 15.4,21.6 20.9,23.9 23.3,9.1 7.3,18.3 	"/>
	<path d="M17,0C7.6,0,0,7.6,0,17s7.6,17,17,17s17-7.6,17-17S26.4,0,17,0z M25,7.8L22.1,25c0,0.2-0.2,0.4-0.4,0.5
		c-0.1,0.1-0.2,0.1-0.3,0.1c-0.1,0-0.2,0-0.3-0.1l-5.9-2.4L12,26.8c-0.1,0.2-0.3,0.2-0.5,0.2c-0.1,0-0.2,0-0.3,0
		c-0.3-0.1-0.5-0.4-0.5-0.7v-5l-5.3-2.2C5.2,19,5,18.8,5,18.5c0-0.3,0.1-0.5,0.4-0.7L23.9,7.1c0.2-0.1,0.5-0.1,0.8,0
		C24.9,7.3,25,7.6,25,7.8z"/>
</g>
<g>
</g>
<g>
</g>
<g>
</g>
<g>
</g>
<g>
</g>
<g>
</g>
</svg>
